<?xml version="1.0" encoding="UTF-8"?>
<svg width="1440px" height="568px" viewBox="0 0 1440 568" version="1.1" xmlns="http://www.w3.org/2000/svg" xmlns:xlink="http://www.w3.org/1999/xlink">
    <title>转曲白色</title>
    <g id="转曲白色" stroke="none" stroke-width="1" fill="none" fill-rule="evenodd">
        <g id="DTC.center-4" transform="translate(480.664062, 206.423828)" fill="#FFFFFF" fill-rule="nonzero">
            <g id="Sync-Meet">
                <path d="M47.8652344,0 C33.9977433,0 22.503719,4.03739677 13.5590299,12.1302107 C4.54444531,20.2862635 0,30.8112775 0,43.4609375 C0,52.481305 2.38338029,60.3602481 7.15897392,66.9908244 C11.8267962,73.4717676 22.7313174,82.1587307 40.0587395,93.3447881 L41.1469373,94.0378888 C51.1716193,100.452904 57.5032623,105.355338 59.991977,108.52 C62.4022814,111.584955 63.59375,115.100523 63.59375,119.193359 C63.59375,124.101911 61.9049558,127.803185 58.4482018,130.597395 C54.8309962,133.521303 49.7317998,135.029297 43.03125,135.029297 C36.6087159,135.029297 30.586513,133.462545 24.9101621,130.312662 C21.414161,128.372685 15.6731181,123.482287 7.8908123,115.738124 C7.03963329,114.897084 5.90263666,114.428237 4.71607885,114.427912 C2.23079763,114.42723 0.215526177,116.441395 0.214843882,118.926676 L0.21484375,144.351374 C0.217320446,145.826238 0.93678357,147.202789 2.14484977,148.042122 L3.27792922,148.832766 C10.9389208,154.14355 16.9265138,157.569597 21.3525981,159.126022 C28.2587215,161.554549 35.9544263,162.761719 44.4277344,162.761719 C58.2226965,162.761719 69.6964615,158.724653 78.6746461,150.636547 C87.7239024,142.484416 92.2929688,132.066157 92.2929688,119.623047 C92.2929688,108.88268 89.8997658,99.7537691 85.0684182,92.3119352 C80.2845761,84.9432752 70.5234192,76.7594916 55.7292053,67.5591098 L52.4589383,65.596431 L51.3736091,64.9147256 C35.4563096,54.842344 27.625,46.5379822 27.625,40.8828125 C27.625,36.7429996 29.2512452,33.4768433 32.6718054,30.8036324 C36.2773735,27.9858354 41.0145954,26.5507812 47.0058594,26.5507812 C52.1061123,26.5507812 57.2237938,27.6497705 62.3824667,29.8653544 C65.576456,31.2371318 70.9695718,34.6038391 78.4093484,39.9103203 C79.1843378,40.4563499 80.0903473,40.7459787 81.0217193,40.7467386 C83.5069992,40.7487663 85.5233603,38.7356931 85.5253895,36.2504136 L85.5253906,14.4108078 C85.522433,12.7475638 84.6091502,11.2266059 83.1488704,10.4446978 L81.9434354,9.80657703 C75.0064477,6.15724879 69.7251463,3.78577334 66.0027815,2.67143484 C60.0563171,0.891283079 54.0069703,0 47.8652344,0 Z" id="路径"></path>
                <path d="M115.044965,53.8183594 L95.2803032,53.8183594 C94.5524657,53.8183594 93.8354893,53.9949047 93.1908669,54.3328536 L92.9945071,54.4420152 C90.9401236,55.6511802 90.1758023,58.2733627 91.2947975,60.4077957 L131.487,137.073 L98.7183817,203.537371 C98.4131989,204.156347 98.2544701,204.837222 98.2544701,205.527344 C98.2544701,208.012625 100.269189,210.027344 102.75447,210.027344 L122.116851,210.027344 C123.829284,210.027344 125.393304,209.055414 126.151601,207.520028 L198.855246,60.3110438 C199.161297,59.6913574 199.320496,59.0095022 199.320496,58.3183594 C199.320496,55.833078 197.305778,53.8183594 194.820496,53.8183594 L175.460547,53.8183594 L175.237713,53.8238558 C173.610591,53.9042219 172.146219,54.8604408 171.422279,56.3328151 L146.155,107.72 L119.026299,56.220984 C118.247874,54.7433419 116.715106,53.8183594 115.044965,53.8183594 Z" id="路径"></path>
                <path d="M257.337891,52.3144531 C251.196261,52.3144531 245.429408,53.5069208 240.069514,55.893443 L239.48099,56.161029 C236.539345,57.5262298 233.61228,59.3004134 230.6974,61.4800107 L230.222,61.839 L230.222656,58.3183594 C230.222656,55.833078 228.207938,53.8183594 225.722656,53.8183594 L207.957031,53.8183594 C205.47175,53.8183594 203.457031,55.833078 203.457031,58.3183594 L203.457031,155.576172 C203.457031,158.061453 205.47175,160.076172 207.957031,160.076172 L225.722656,160.076172 L225.934492,160.071274 C228.32142,159.960661 230.222656,157.990445 230.222656,155.576172 L230.222,86.294 L230.608488,85.8454102 C233.587991,82.4186842 236.574776,79.9528174 239.548303,78.4243687 C242.861712,76.7212144 246.772337,75.8574219 251.322266,75.8574219 C257.559266,75.8574219 261.884313,77.4261677 264.54971,80.428247 C267.301009,83.5270775 268.769531,88.6437197 268.769531,95.8828125 L268.769531,155.576172 C268.769531,158.061453 270.78425,160.076172 273.269531,160.076172 L291.035156,160.076172 C293.520438,160.076172 295.535156,158.061453 295.535156,155.576172 L295.535156,90.8339844 C295.535156,79.0725528 292.114687,69.6217759 285.22516,62.692425 C278.333159,55.7605865 268.965222,52.3144531 257.337891,52.3144531 Z" id="路径"></path>
                <path d="M364.867188,51.6699219 C348.37731,51.6699219 334.511057,56.9413901 323.460127,67.4588264 C312.377115,78.0067966 306.796875,91.2069505 306.796875,106.839844 C306.796875,122.8332 312.379302,136.134775 323.483363,146.511328 C334.540577,156.844105 348.684195,162.009766 365.726562,162.009766 C370.593172,162.009766 375.493393,161.56089 380.424927,160.664248 L381.065835,160.542489 C384.256819,159.911758 388.801261,158.668563 394.750613,156.807106 C396.627443,156.224361 397.910104,154.480312 397.908204,152.508073 L397.908204,134.574305 C397.906533,133.956874 397.781732,133.355615 397.541309,132.797275 C396.558149,130.51406 393.909631,129.46029 391.626575,130.445098 L390.054965,131.115014 C385.632024,132.975712 382.227399,134.189492 379.894111,134.750204 C375.544505,135.795458 371.074546,136.318359 366.478516,136.318359 C356.731971,136.318359 349.036156,133.565254 343.201277,128.083033 C337.406179,122.638187 334.529297,115.635667 334.529297,106.839844 C334.529297,98.2551886 337.355316,91.3716995 343.053805,85.959727 C348.785838,80.5158969 356.207132,77.7910156 365.511719,77.7910156 C369.830102,77.7910156 374.060971,78.4049064 378.214613,79.6343844 C380.688383,80.3666204 384.554549,82.089995 389.716395,84.7870964 C390.342695,85.1203366 391.064515,85.298489 391.795014,85.2987911 C394.280295,85.299819 396.295846,83.285934 396.296875,80.8006532 L396.296875,61.9723675 C396.294644,60.1298986 395.174778,58.4788058 393.470004,57.7951277 C387.536475,55.4553273 383.004905,53.9460638 379.783821,53.2522919 C374.886226,52.1974252 369.912623,51.6699219 364.867188,51.6699219 Z" id="路径"></path>
                <path d="M430.734783,2.79296875 L413.503906,2.79296875 C411.018625,2.79296875 409.003906,4.80768738 409.003906,7.29296875 L409.003906,155.576172 C409.003906,158.061453 411.018625,160.076172 413.503906,160.076172 L432.34375,160.076172 L432.555586,160.071274 C434.942513,159.960661 436.84375,157.990445 436.84375,155.576172 L436.843,48.739 L481.811363,101.248025 C481.961105,101.42288 482.124044,101.585985 482.298746,101.735906 L482.478291,101.882269 C484.361135,103.339223 487.076322,103.078601 488.644245,101.251517 L533.72,48.724 L533.720703,155.576172 C533.720703,158.061453 535.735422,160.076172 538.220703,160.076172 L557.060547,160.076172 C559.545828,160.076172 561.560547,158.061453 561.560547,155.576172 L561.560547,7.29296875 C561.560547,4.80768738 559.545828,2.79296875 557.060547,2.79296875 L539.829076,2.79296875 L539.583613,2.79965891 C538.36094,2.86637659 537.213908,3.42933894 536.412421,4.36440757 L485.231,64.075 L434.15431,4.36776146 C433.299366,3.36834443 432.049988,2.79296875 430.734783,2.79296875 Z" id="路径"></path>
                <path d="M628.958984,51.8847656 C644.244375,51.8847656 656.553084,56.9713297 665.622147,67.1255801 C671.774803,74.0144509 675.817046,82.5299708 677.749083,92.6027112 L677.833483,93.0662694 C678.374524,96.1929391 678.768585,101.535707 679.041849,109.21406 C679.136022,111.697262 677.1996,113.786913 674.716281,113.881505 L674.583094,113.884041 L605.122,113.884 L605.14082,114.006881 C606.132702,120.504157 608.611418,125.631516 612.5594,129.494806 L612.882726,129.805278 C617.779776,134.419805 624.400218,136.748047 632.933594,136.748047 C638.837932,136.748047 645.030116,135.651339 651.517915,133.443449 L652.073202,133.248666 C656.152409,131.777165 662.372735,128.681445 670.640478,123.984706 C672.804148,122.755436 675.55335,123.516898 676.777978,125.681532 C677.160982,126.358525 677.361967,127.123234 677.361328,127.898177 L677.361306,145.474181 C677.355511,147.106861 676.465867,148.608191 675.032042,149.400213 L673.165194,150.418654 C665.21142,154.718397 659.022365,157.542968 654.518478,158.905683 C647.205628,161.118289 639.648894,162.224609 631.859375,162.224609 C615.262096,162.224609 601.830213,157.017113 591.794481,146.59687 C581.785852,136.204768 576.796875,122.384729 576.796875,105.335938 C576.796875,89.6330585 581.619884,76.7204617 591.269648,66.8015801 C600.938815,56.8627558 613.576735,51.8847656 628.958984,51.8847656 Z M628.744141,75.8574219 C621.954317,75.8574219 616.649506,77.6101812 612.671122,81.0683145 C609.53034,83.798379 607.206301,87.6108331 605.722904,92.5706339 L605.652,92.812 L649.713,92.812 L649.63129,92.4427394 C648.634699,88.1493538 646.708513,84.614035 643.850737,81.7689207 L643.516859,81.4436974 C639.599951,77.7103944 634.739695,75.8574219 628.744141,75.8574219 Z" id="形状"></path>
                <path d="M736.273438,51.8847656 C751.558828,51.8847656 763.867537,56.9713297 772.9366,67.1255801 C778.32026,73.153439 782.090543,80.4303375 784.242486,88.9077313 C785.194908,92.6597188 785.877889,99.3543413 786.342126,109.165209 C786.46329,111.647283 784.549628,113.757858 782.067457,113.879382 L781.911774,113.884847 L781.69,113.882 L781.668624,113.884766 L712.437,113.884 L712.455273,114.006881 C713.447155,120.504157 715.925871,125.631516 719.873853,129.494806 L720.197179,129.805278 C725.094229,134.419805 731.714671,136.748047 740.248047,136.748047 C746.152385,136.748047 752.344569,135.651339 758.832368,133.443449 L759.387655,133.248666 C763.466862,131.777165 769.687188,128.681445 777.954931,123.984706 C780.118601,122.755436 782.867803,123.516898 784.092431,125.681532 C784.475435,126.358525 784.67642,127.123234 784.675781,127.898177 L784.675759,145.474181 C784.669964,147.106861 783.780321,148.608191 782.346495,149.400213 L780.479647,150.418654 C772.525874,154.718397 766.336818,157.542968 761.832931,158.905683 C754.520081,161.118289 746.963347,162.224609 739.173828,162.224609 C722.576549,162.224609 709.144666,157.017113 699.108934,146.59687 C689.100305,136.204768 684.111328,122.384729 684.111328,105.335938 C684.111328,89.6330585 688.934337,76.7204617 698.584101,66.8015801 C708.253268,56.8627558 720.891188,51.8847656 736.273438,51.8847656 Z M736.058594,75.8574219 C729.26877,75.8574219 723.963959,77.6101812 719.985576,81.0683145 C716.844793,83.798379 714.520754,87.6108331 713.037357,92.5706339 L712.966,92.812 L757.027,92.812 L756.945743,92.4427394 C755.949152,88.1493538 754.022966,84.614035 751.16519,81.7689207 L750.831312,81.4436974 C746.914404,77.7103944 742.054148,75.8574219 736.058594,75.8574219 Z" id="形状"></path>
                <path d="M823.466797,30.7226562 L822.654728,30.7226562 C821.383153,30.7226562 820.170934,31.260628 819.317817,32.2035463 L785.176761,69.938398 C784.428182,70.7657744 784.013672,71.8417473 784.013672,72.957508 L784.013672,73.5390625 L784.018534,73.7493352 C784.12833,76.1186511 786.084009,78.0058594 788.480469,78.0058594 L800.878,78.005 L800.878906,121.556641 C800.878906,136.352622 803.326425,146.759396 808.544064,152.839794 C813.861394,159.036367 822.681136,162.009766 834.779297,162.009766 C839.120688,162.009766 843.199224,161.56936 847.011764,160.683619 C849.542979,160.095559 852.860637,158.839061 857.039417,156.909991 L857.23419,156.815577 C858.831099,155.993126 859.767806,154.289819 859.660734,152.51524 L859.656,152.468 L859.63459,137.241285 C859.743917,136.263158 859.66012,135.349977 859.18353,134.393996 C858.073893,132.168199 855.368278,131.263855 853.143211,132.378238 L852.365691,132.763192 C849.960924,133.93885 848.103245,134.70232 846.849296,135.047156 C844.288004,135.751511 841.663972,136.103516 838.96875,136.103516 C834.307978,136.103516 831.439971,135.201372 830.194126,133.736959 L830.108003,133.630591 C828.825503,131.968999 827.966797,127.336347 827.966797,120.052734 L827.966,78.005 L854.511719,78.0058594 C856.997,78.0058594 859.011719,75.9911407 859.011719,73.5058594 L859.011719,58.3183594 L859.006821,58.1065237 C858.896208,55.7195959 856.925992,53.8183594 854.511719,53.8183594 L827.966,53.818 L827.966797,35.2226562 C827.966797,32.7373749 825.952078,30.7226562 823.466797,30.7226562 Z" id="路径"></path>
            </g>
        </g>
        <g id="编组" transform="translate(139.000000, 178.000000)" fill="#FFFFFF">
            <path d="M197.494948,112.652797 L255.921312,171.205293 C259.822342,175.114745 266.153988,175.121572 270.063439,171.220542 C271.943469,169.344562 273,166.797755 273,164.141854 L273,47.0368616 C273,41.5140141 268.522847,37.0368616 263,37.0368616 C260.344099,37.0368616 257.797292,38.0933924 255.921312,39.9734222 L197.494948,98.5259184 C193.599865,102.42941 193.599865,108.749306 197.494948,112.652797 Z" id="形状结合"></path>
            <path d="M156.558395,0 C183.068063,-4.86974701e-15 204.558395,21.490332 204.558395,48 L204.558,52 L149.780275,52 C123.535703,52 102.210583,73.0626744 101.786705,99.2062322 L101.780275,100 L101.780275,110 C101.780275,136.509668 123.270607,158 149.780275,158 L204.558,158 L204.558395,162 C204.558395,188.509668 183.068063,210 156.558395,210 L48,210 C21.490332,210 8.72867636e-15,188.509668 0,162 L0,48 C-3.24649801e-15,21.490332 21.490332,-3.85892935e-15 48,0 L156.558395,0 Z" id="形状结合"></path>
        </g>
    </g>
</svg>