<svg width="121" height="24" viewBox="0 0 121 24" fill="none"
    xmlns="http://www.w3.org/2000/svg">
    <g clip-path="url(#clip0_1710_72)">
        <path d="M39.2337 2.86084C37.8369 2.86084 36.6793 3.2672 35.7783 4.08174C34.8704 4.90264 34.4127 5.96198 34.4127 7.23516C34.4127 8.14306 34.6527 8.93607 35.1337 9.60343C35.6039 10.2557 36.7022 11.1301 38.4474 12.2559L38.557 12.3257C39.5667 12.9714 40.2044 13.4648 40.4551 13.7833C40.6979 14.0918 40.8179 14.4457 40.8179 14.8576C40.8179 15.3516 40.6478 15.7242 40.2996 16.0054C39.9353 16.2997 39.4217 16.4515 38.7468 16.4515C38.0999 16.4515 37.4934 16.2938 36.9216 15.9767C36.5695 15.7815 35.9913 15.2893 35.2074 14.5098C35.1217 14.4252 35.0072 14.378 34.8877 14.378C34.6373 14.3779 34.4344 14.5806 34.4343 14.8308L34.4343 17.3897C34.4345 17.5382 34.507 17.6767 34.6287 17.7612L34.7428 17.8408C35.5144 18.3753 36.1175 18.7201 36.5633 18.8768C37.2589 19.1212 38.034 19.2427 38.8875 19.2427C40.2769 19.2427 41.4325 18.8364 42.3368 18.0223C43.2483 17.2018 43.7085 16.1532 43.7085 14.9008C43.7085 13.8198 43.4674 12.901 42.9808 12.152C42.499 11.4103 41.5158 10.5866 40.0257 9.66063L39.6964 9.46309L39.587 9.39448C37.9838 8.3807 37.1951 7.54487 37.1951 6.97568C37.1951 6.55901 37.3589 6.23027 37.7034 5.96121C38.0665 5.6776 38.5437 5.53316 39.1471 5.53316C39.6608 5.53316 40.1763 5.64378 40.6959 5.86677C41.0176 6.00484 41.5608 6.3437 42.3101 6.8778C42.3882 6.93275 42.4794 6.9619 42.5732 6.96198C42.8235 6.96218 43.0266 6.75957 43.0268 6.50943V4.31128C43.0265 4.14388 42.9346 3.99079 42.7875 3.91209L42.6661 3.84787C41.9674 3.48056 41.4354 3.24188 41.0605 3.12972C40.4616 2.95055 39.8523 2.86084 39.2337 2.86084Z" fill="white"/>
        <path d="M46.0001 8.27759H44.0094C43.9361 8.27759 43.8638 8.29536 43.7989 8.32937L43.7791 8.34036C43.5722 8.46206 43.4952 8.72598 43.6079 8.94081L47.6561 16.6571L44.3557 23.3467C44.3249 23.409 44.3089 23.4776 44.3089 23.547C44.3089 23.7972 44.5119 23.9999 44.7622 23.9999H46.7124C46.8848 23.9999 47.0424 23.9021 47.1187 23.7476L54.4415 8.93107C54.4723 8.8687 54.4884 8.80007 54.4884 8.73051C54.4884 8.48037 54.2854 8.27759 54.0351 8.27759H52.0852L52.0627 8.27814C51.8989 8.28623 51.7514 8.38247 51.6784 8.53067L49.1335 13.7028L46.4011 8.51941C46.3227 8.37069 46.1683 8.27759 46.0001 8.27759Z" fill="white"/>
        <path d="M60.3319 8.12622C59.7133 8.12622 59.1325 8.24624 58.5926 8.48644L58.5334 8.51338C58.2371 8.65078 57.9423 8.82935 57.6487 9.04873L57.6008 9.08486L57.6009 8.73051C57.6009 8.48037 57.3979 8.27759 57.1476 8.27759H55.3582C55.1079 8.27759 54.905 8.48037 54.905 8.73051V18.5195C54.905 18.7696 55.1079 18.9724 55.3582 18.9724H57.1476L57.1689 18.9719C57.4094 18.9608 57.6009 18.7625 57.6009 18.5195L57.6008 11.5462L57.6397 11.5011C57.9398 11.1562 58.2406 10.908 58.5401 10.7542C58.8739 10.5828 59.2677 10.4958 59.726 10.4958C60.3542 10.4958 60.7898 10.6537 61.0583 10.9559C61.3354 11.2678 61.4833 11.7827 61.4833 12.5114V18.5195C61.4833 18.7696 61.6862 18.9724 61.9366 18.9724H63.7259C63.9763 18.9724 64.1792 18.7696 64.1792 18.5195V12.0032C64.1792 10.8194 63.8347 9.86819 63.1407 9.17076C62.4466 8.47307 61.503 8.12622 60.3319 8.12622Z" fill="white"/>
        <path d="M71.1624 8.06128C69.5015 8.06128 68.1049 8.59185 66.9918 9.65042C65.8755 10.7121 65.3135 12.0407 65.3135 13.6141C65.3135 15.2238 65.8757 16.5626 66.9942 17.607C68.1078 18.647 69.5324 19.1669 71.2489 19.1669C71.7391 19.1669 72.2326 19.1218 72.7293 19.0315L72.7939 19.0193C73.1153 18.9558 73.573 18.8306 74.1722 18.6433C74.3613 18.5846 74.4905 18.4091 74.4903 18.2106V16.4056C74.4901 16.3434 74.4775 16.2829 74.4533 16.2267C74.3543 15.9969 74.0875 15.8908 73.8576 15.99L73.6993 16.0574C73.2538 16.2447 72.9109 16.3668 72.6759 16.4233C72.2378 16.5285 71.7876 16.5811 71.3247 16.5811C70.343 16.5811 69.5678 16.304 68.9802 15.7522C68.3965 15.2042 68.1067 14.4994 68.1067 13.6141C68.1067 12.7501 68.3913 12.0572 68.9653 11.5125C69.5426 10.9646 70.2901 10.6904 71.2273 10.6904C71.6622 10.6904 72.0884 10.7521 72.5067 10.8759C72.7559 10.9496 73.1453 11.123 73.6652 11.3945C73.7283 11.428 73.801 11.446 73.8746 11.446C74.1249 11.4461 74.3279 11.2434 74.328 10.9933V9.09822C74.3278 8.91277 74.215 8.74659 74.0433 8.67778C73.4456 8.44228 72.9892 8.29037 72.6648 8.22054C72.1715 8.11437 71.6705 8.06128 71.1624 8.06128Z" fill="white"/>
        <path d="M77.7966 3.14185H76.0611C75.8108 3.14185 75.6078 3.34463 75.6078 3.59477V18.5194C75.6078 18.7695 75.8108 18.9723 76.0611 18.9723H77.9587L77.98 18.9718C78.2204 18.9607 78.4119 18.7624 78.4119 18.5194L78.4118 7.76629L82.9411 13.0513C82.9562 13.0689 82.9726 13.0853 82.9902 13.1004L83.0082 13.1151C83.1979 13.2618 83.4714 13.2355 83.6293 13.0517L88.1693 7.76478L88.1694 18.5194C88.1694 18.7695 88.3723 18.9723 88.6227 18.9723H90.5202C90.7705 18.9723 90.9735 18.7695 90.9735 18.5194V3.59477C90.9735 3.34463 90.7705 3.14185 90.5202 3.14185H88.7847L88.7599 3.14252C88.6368 3.14923 88.5213 3.2059 88.4405 3.30001L83.2855 9.30985L78.141 3.30035C78.0549 3.19976 77.9291 3.14185 77.7966 3.14185Z" fill="white"/>
        <path d="M97.7619 8.08301C99.3014 8.08301 100.541 8.59497 101.455 9.61699C102.074 10.3104 102.481 11.1674 102.676 12.1813L102.685 12.2279C102.739 12.5426 102.779 13.0804 102.806 13.8532C102.816 14.1031 102.621 14.3134 102.371 14.323L102.357 14.3232L95.361 14.3232L95.3629 14.3356C95.4628 14.9895 95.7125 15.5056 96.1101 15.8944L96.1427 15.9257C96.6359 16.3901 97.3027 16.6245 98.1622 16.6245C98.7569 16.6245 99.3806 16.5141 100.034 16.2919L100.09 16.2722C100.501 16.1241 101.127 15.8126 101.96 15.3398C102.178 15.2161 102.455 15.2927 102.578 15.5106C102.617 15.5788 102.637 15.6557 102.637 15.7337V17.5027C102.636 17.6671 102.547 17.8182 102.402 17.8979L102.214 18.0004C101.413 18.4332 100.79 18.7175 100.336 18.8546C99.5997 19.0773 98.8386 19.1887 98.054 19.1887C96.3823 19.1887 95.0295 18.6645 94.0186 17.6157C93.0106 16.5698 92.5081 15.1788 92.5081 13.4628C92.5081 11.8824 92.9938 10.5827 93.9658 9.58438C94.9397 8.58404 96.2126 8.08301 97.7619 8.08301ZM97.7402 10.4958C97.0564 10.4958 96.5221 10.6723 96.1214 11.0203C95.805 11.2951 95.5709 11.6788 95.4215 12.178L95.4144 12.2023H99.8522L99.844 12.1651C99.7436 11.733 99.5496 11.3772 99.2618 11.0908L99.2282 11.0581C98.8336 10.6823 98.3441 10.4958 97.7402 10.4958Z" fill="white"/>
        <path d="M108.571 8.08301C110.11 8.08301 111.35 8.59497 112.263 9.61699C112.806 10.2237 113.185 10.9561 113.402 11.8094C113.498 12.187 113.567 12.8608 113.614 13.8483C113.626 14.0981 113.433 14.3105 113.183 14.3227L113.167 14.3233L113.145 14.323L113.143 14.3233L106.17 14.3232L106.172 14.3356C106.272 14.9895 106.521 15.5056 106.919 15.8944L106.951 15.9257C107.445 16.3901 108.112 16.6245 108.971 16.6245C109.566 16.6245 110.189 16.5141 110.843 16.2919L110.899 16.2722C111.31 16.1241 111.936 15.8126 112.769 15.3398C112.987 15.2161 113.264 15.2927 113.387 15.5106C113.426 15.5788 113.446 15.6557 113.446 15.7337V17.5027C113.445 17.6671 113.356 17.8182 113.211 17.8979L113.023 18.0004C112.222 18.4332 111.599 18.7175 111.145 18.8546C110.408 19.0773 109.647 19.1887 108.863 19.1887C107.191 19.1887 105.838 18.6645 104.827 17.6157C103.819 16.5698 103.317 15.1788 103.317 13.4628C103.317 11.8824 103.803 10.5827 104.775 9.58438C105.748 8.58404 107.021 8.08301 108.571 8.08301ZM108.549 10.4958C107.865 10.4958 107.331 10.6723 106.93 11.0203C106.614 11.2951 106.38 11.6788 106.23 12.178L106.223 12.2023H110.661L110.653 12.1651C110.552 11.733 110.358 11.3772 110.071 11.0908L110.037 11.0581C109.642 10.6823 109.153 10.4958 108.549 10.4958Z" fill="white"/>
        <path d="M117.353 5.95312H117.271C117.143 5.95312 117.021 6.00727 116.935 6.10218L113.496 9.90017C113.421 9.98345 113.379 10.0917 113.379 10.204V10.2626L113.38 10.2837C113.391 10.5222 113.588 10.7122 113.829 10.7122L115.078 10.7121L115.078 15.0955C115.078 16.5847 115.324 17.6322 115.85 18.2442C116.385 18.8678 117.274 19.1671 118.492 19.1671C118.93 19.1671 119.34 19.1228 119.724 19.0336C119.979 18.9744 120.313 18.848 120.734 18.6538L120.754 18.6443C120.915 18.5615 121.009 18.3901 120.998 18.2115L120.998 18.2067L120.996 16.6742C121.007 16.5757 120.998 16.4838 120.95 16.3876C120.839 16.1636 120.566 16.0725 120.342 16.1847L120.264 16.2235C120.021 16.3418 119.834 16.4186 119.708 16.4533C119.45 16.5242 119.186 16.5597 118.914 16.5597C118.445 16.5597 118.156 16.4689 118.03 16.3215L118.022 16.3108C117.893 16.1435 117.806 15.6772 117.806 14.9442L117.806 10.7121L120.48 10.7122C120.73 10.7122 120.933 10.5094 120.933 10.2592V8.73062L120.932 8.7093C120.921 8.46906 120.723 8.2777 120.48 8.2777L117.806 8.27766L117.806 6.40605C117.806 6.15591 117.603 5.95312 117.353 5.95312Z" fill="white"/>
        <path fill-rule="evenodd" clip-rule="evenodd" d="M19.8918 11.3385L25.7766 17.2318C26.1695 17.6253 26.8072 17.6259 27.201 17.2333C27.3903 17.0445 27.4968 16.7882 27.4968 16.5208V4.73428C27.4968 4.17841 27.0458 3.72778 26.4896 3.72778C26.222 3.72778 25.9655 3.83412 25.7766 4.02335L19.8918 9.91663C19.4995 10.3095 19.4995 10.9456 19.8918 11.3385Z" fill="white"/>
        <path fill-rule="evenodd" clip-rule="evenodd" d="M15.7687 0C18.4388 0 20.6033 2.16299 20.6033 4.83118L20.6032 5.23378H15.086C12.4426 5.23378 10.2947 7.35372 10.252 9.98506L10.2514 10.065V11.0714C10.2514 13.7396 12.4159 15.9026 15.086 15.9026H20.6032L20.6033 16.3052C20.6033 18.9734 18.4388 21.1364 15.7687 21.1364H4.8346C2.16452 21.1364 0 18.9734 0 16.3052V4.83118C0 2.16299 2.16452 0 4.8346 0H15.7687Z" fill="white"/>
    </g>
    <defs>
        <clipPath id="clip0_1710_72">
            <rect width="121" height="24" fill="white"/>
        </clipPath>
    </defs>
</svg>
