<svg width="16" height="16" viewBox="0 0 16 16" fill="none" xmlns="http://www.w3.org/2000/svg">
<g clip-path="url(#clip0_393_6618)">
<path d="M13.3719 14.9718H13.1433C12.6862 14.9718 12.2291 14.629 12.0005 14.1718C11.6576 13.6004 11.6576 12.9147 12.0005 12.229C12.2291 11.7718 12.4576 11.429 12.6862 11.2004C12.9148 10.8575 13.1433 10.5147 13.3719 10.0575C13.6005 9.71467 13.6005 9.37181 13.3719 9.25753C13.1433 9.02896 12.5719 9.02896 11.8862 9.60039C10.9719 10.2861 10.0576 11.0861 9.25763 11.8861C8.91477 12.1147 8.6862 12.4575 8.34334 12.6861C7.20048 13.829 5.94334 13.6004 5.25763 13.029C4.57191 12.3432 4.45763 11.3147 5.02906 10.5147C6.05763 9.14324 8.22906 6.51467 10.0576 4.45753C10.6291 3.8861 10.6291 3.20038 10.2862 2.85753C9.82905 2.40038 8.91477 2.17181 7.8862 2.85753C4.6862 4.80038 2.05763 8.45753 1.25763 9.4861C1.02906 9.71467 0.686198 9.82896 0.457627 9.60039C0.229055 9.37181 0.114769 9.02896 0.343341 8.80038C1.14334 7.65753 4.00048 3.8861 7.31477 1.82896C9.02905 0.800385 10.5148 1.14324 11.2005 2.05753C11.8862 2.97181 11.8862 4.11467 10.9719 5.14324C9.14334 7.20039 6.97191 9.82896 6.05763 11.0861C5.71477 11.5432 5.82905 11.8861 6.05763 12.1147C6.40048 12.3432 6.97191 12.4575 7.65763 11.7718C8.00048 11.5432 8.22905 11.2004 8.57191 10.9718C9.4862 10.1718 10.4005 9.25753 11.3148 8.57181C12.5719 7.65753 13.7148 7.8861 14.2862 8.34324C14.8576 8.91467 14.9719 9.71467 14.5148 10.5147C14.2862 11.0861 13.9433 11.429 13.7148 11.7718C13.4862 12.1147 13.3719 12.3432 13.1433 12.8004C13.0291 13.1432 13.1433 13.4861 13.1433 13.6004C13.1433 13.7147 13.3719 13.829 13.3719 13.829C13.8291 13.829 14.1719 13.4861 14.8576 12.6861C15.0862 12.4575 15.4291 12.3432 15.6576 12.6861C15.8862 12.9147 16.0005 13.2575 15.6576 13.4861C15.0862 14.2861 14.4005 15.0861 13.3719 15.0861V14.9718Z" fill="white"/>
</g>
<defs>
<clipPath id="clip0_393_6618">
<rect width="16" height="16" fill="white"/>
</clipPath>
</defs>
</svg>
